# xmcd CD database file
#
# Track frame offsets:
#	150
#	19677
#	35977
#	55477
#
# Disc length: 954 seconds
#
# Revision: 0
# Processed by: cddbd v1.5.1PL2 Copyright (c) Steve Scherf et al.
# Submitted via: CDex 1.51
#
DISCID=3303b804
DTITLE=ほしのあき - にゃぁあ！
DYEAR=2005
DGENRE=J-pop
TTITLE0=にゃぁあ！（ジェシパナシェのテーマ）
TTITLE1=忘れちゃおう
TTITLE2=にゃぁあ！（ジェシパナシェのテーマ）
TTITLE3=忘れちゃおう
EXTD=YEAR: 2005
EXTT0=
EXTT1=
EXTT2=
EXTT3=
PLAYORDER=
